Coordinates
version=1
nRows=15
nColumns=19
inDegrees=yes

Units are S.I. units (second, meters, Newtons, ...)
If the header above contains a line with 'inDegrees', this indicates whether rotational values are in degrees (yes) or radians (no).

endheader
time	pelvis_tilt	pelvis_list	pelvis_rotation	pelvis_tx	pelvis_ty	pelvis_tz	hip_flexion_r	hip_adduction_r	hip_rotation_r	knee_angle_r	knee_angle_r_beta	ankle_angle_r	hip_flexion_l	hip_adduction_l	hip_rotation_l	knee_angle_l	knee_angle_l_beta	ankle_angle_l
     15.20666667	     -3.94086380	     -8.39690453	     -3.31424032	      2.24074026	      0.96280034	      1.02696426	     27.38822211	     11.52097370	    -14.08009765	     19.40744436	      0.33872380	      5.14751738	     -9.69064875	    -13.33159977	    -13.54825231	     58.69113139	      1.02435348	    -14.11377005
     15.21333333	     -3.31154024	     -8.90895515	     -3.88291285	      2.23956070	      0.95879789	      1.02711868	     27.22232933	     11.79542072	    -14.67209717	     22.66074982	      0.39550470	      5.55389346	     -8.98802530	    -13.85220688	    -13.14248880	     62.23443070	      1.08619572	    -13.20266789
     15.22000000	     -2.66706692	     -9.32830700	     -4.46138789	      2.23825901	      0.95461839	      1.02711654	     26.97351045	     11.96131826	    -14.92841030	     25.97024504	      0.45326628	      6.13173089	     -8.20837034	    -14.25187378	    -12.72766724	     65.68730509	      1.14645975	    -12.29798858
     15.22666667	     -1.66980352	     -9.98008504	     -5.03227397	      2.23709057	      0.95062490	      1.02717200	     26.15613990	     12.41998088	    -14.85708218	     29.08915693	      0.50770156	      6.94949342	     -7.87475961	    -14.99753397	    -12.60763156	     68.96832025	      1.20372427	    -11.31921439
     15.23333333	     -0.84379312	    -10.46531652	     -5.55242888	      2.23569252	      0.94645424	      1.02717061	     25.45445772	     12.73491786	    -14.53490288	     32.15020358	      0.56112691	      8.08680933	     -7.18288242	    -15.57777249	    -12.32304731	     72.17219316	      1.25964240	    -10.35381637
     15.24000000	     -1.11078656	    -10.36539249	     -6.16231959	      2.23392737	      0.94112737	      1.02738245	     26.03321905	     12.58999238	    -13.84657599	     35.38314602	      0.61755240	      9.49646204	     -4.93236774	    -15.56561818	    -11.62000861	     75.47078183	      1.31721363	     -9.34229460
     15.24666667	     -0.34355094	    -10.83529140	     -6.56646713	      2.23237787	      0.93733041	      1.02749120	     25.05352114	     13.04919208	    -13.14916485	     37.87054708	      0.66096574	     11.14487059	     -3.97195544	    -16.25066265	    -11.21343937	     78.36114946	      1.36766006	     -8.34987381
     15.25333333	     -0.73267808	    -10.80578251	     -7.01468576	      2.23052860	      0.93256169	      1.02782498	     25.34400830	     13.15959965	    -12.26174041	     40.34524286	      0.70415733	     12.92150976	     -1.36749143	    -16.49961937	    -10.38521085	     81.31645168	      1.41923982	     -7.34200806
     15.26000000	     -0.72261756	    -10.94261049	     -7.24841282	      2.22875757	      0.92881280	      1.02803352	     24.88868653	     13.42358269	    -11.47786444	     42.27067739	      0.73776250	     14.86438965	      0.85391879	    -16.95875950	     -9.49569086	     83.94721661	      1.46515533	     -6.39507492
     15.26666667	     -0.41913568	    -11.12264245	     -7.39076486	      2.22719189	      0.92610229	      1.02825733	     23.80362225	     13.72875649	    -10.70954879	     43.69989061	      0.76270697	     16.85058830	      2.74459544	    -17.46259721	     -8.63420746	     86.18130923	      1.50414760	     -5.45712876
     15.27333333	     -0.90861794	    -11.05511011	     -7.33862443	      2.22547137	      0.92314179	      1.02834715	     23.46548130	     13.78594931	    -10.17096520	     44.83775564	      0.78256647	     18.68256117	      5.87345855	    -17.74702973	     -7.30944361	     88.33580902	      1.54175071	     -4.68691319
     15.28000000	     -1.04513053	    -11.05088701	     -7.16910480	      2.22399297	      0.92134365	      1.02832187	     22.43066330	     13.85452940	     -9.71184859	     45.46794029	      0.79356526	     20.38970050	      8.58257824	    -18.03824997	     -6.03315828	     90.05924934	      1.57183042	     -3.84851320
     15.28666667	     -0.95680515	    -11.08197007	     -6.79262228	      2.22276333	      0.92059347	      1.02815334	     20.86331549	     13.88471770	     -9.42586369	     45.59097451	      0.79571261	     21.90354394	     11.07802291	    -18.31979576	     -4.69811730	     91.38000293	      1.59488192	     -3.05542283
     15.29333333	     -0.98301706	    -10.98825345	     -6.33456078	      2.22169492	      0.92051137	      1.02790836	     19.21493479	     13.77182324	     -9.21325822	     45.33042277	      0.79116513	     23.13265067	     13.72220506	    -18.41094659	     -3.37119393	     92.32292951	      1.61133910	     -2.34737826
     15.30000000	     -0.90836186	    -10.82557038	     -5.83743087	      2.22082937	      0.92119032	      1.02766395	     17.26347400	     13.57731094	     -9.02201561	     44.73236869	      0.78072712	     24.10103290	     16.18016307	    -18.40485245	     -2.21694256	     92.86829758	      1.62085756	     -1.60729628
